<svg width="40" height="40" viewBox="0 0 40 40" fill="none" xmlns="http://www.w3.org/2000/svg">
<path d="M20.25 9.5C14.4516 9.5 9.75 14.3234 9.75 20.2672C9.75 25.025 12.7594 29.0562 16.9312 30.4812C16.9898 30.494 17.0495 30.5002 17.1094 30.5C17.4984 30.5 17.6484 30.2141 17.6484 29.9656C17.6484 29.7078 17.6391 29.0328 17.6344 28.1328C17.2871 28.2142 16.9317 28.2567 16.575 28.2594C14.5547 28.2594 14.0953 26.6891 14.0953 26.6891C13.6172 25.4469 12.9281 25.1141 12.9281 25.1141C12.0141 24.4719 12.9234 24.4531 12.9937 24.4531H12.9984C14.0531 24.5469 14.6063 25.5687 14.6063 25.5687C15.1313 26.4875 15.8344 26.7453 16.4625 26.7453C16.8778 26.737 17.2867 26.6412 17.6625 26.4641C17.7563 25.7703 18.0281 25.2969 18.3281 25.025C15.9984 24.7531 13.5469 23.8297 13.5469 19.7047C13.5469 18.5281 13.9547 17.5672 14.625 16.8172C14.5172 16.5453 14.1562 15.4484 14.7281 13.9672C14.8048 13.9488 14.8837 13.9409 14.9625 13.9437C15.3422 13.9437 16.2 14.0891 17.6156 15.0734C19.3357 14.5922 21.1549 14.5922 22.875 15.0734C24.2906 14.0891 25.1484 13.9437 25.5281 13.9437C25.6069 13.9409 25.6858 13.9488 25.7625 13.9672C26.3344 15.4484 25.9734 16.5453 25.8656 16.8172C26.5359 17.5719 26.9437 18.5328 26.9437 19.7047C26.9437 23.8391 24.4875 24.7484 22.1484 25.0156C22.5234 25.3484 22.8609 26.0047 22.8609 27.0078C22.8609 28.4469 22.8469 29.6094 22.8469 29.9609C22.8469 30.2141 22.9922 30.5 23.3812 30.5C23.4442 30.5003 23.5071 30.494 23.5687 30.4812C27.7453 29.0562 30.75 25.0203 30.75 20.2672C30.75 14.3234 26.0484 9.5 20.25 9.5Z" fill="black"/>
</svg>
