<svg width="40" height="40" viewBox="0 0 40 40" fill="none" xmlns="http://www.w3.org/2000/svg">
<path fill-rule="evenodd" clip-rule="evenodd" d="M27.7148 12.5352C26.8951 11.7154 25.7842 11.2533 24.6248 11.2498H15.8752C14.7158 11.2533 13.6049 11.7154 12.7852 12.5352C11.9654 13.3549 11.5033 14.4658 11.4998 15.6252V24.3748C11.5033 25.5342 11.9654 26.6451 12.7852 27.4648C13.6049 28.2846 14.7158 28.7467 15.8752 28.7502H24.6248C25.7842 28.7467 26.8951 28.2846 27.7148 27.4648C28.5346 26.6451 28.9967 25.5342 29.0002 24.3748V15.6252C28.9967 14.4658 28.5346 13.3549 27.7148 12.5352ZM15.8752 9.5H24.6248C27.9937 9.5 30.75 12.2562 30.75 15.6252V24.3748C30.75 27.7437 27.9937 30.5 24.6248 30.5H15.8752C12.5062 30.5 9.75 27.7437 9.75 24.3748V15.6252C9.75 12.2562 12.5062 9.5 15.8752 9.5ZM25.2082 15.404C25.424 15.5482 25.6778 15.6252 25.9373 15.6252C26.1098 15.6255 26.2806 15.5918 26.4401 15.526C26.5995 15.4602 26.7443 15.3635 26.8663 15.2416C26.9882 15.1196 27.0849 14.9748 27.1507 14.8154C27.2165 14.656 27.2502 14.4851 27.2498 14.3127C27.2498 14.0531 27.1729 13.7993 27.0286 13.5835C26.8844 13.3676 26.6794 13.1994 26.4396 13.1001C26.1998 13.0007 25.9359 12.9747 25.6813 13.0254C25.4267 13.076 25.1928 13.201 25.0093 13.3846C24.8257 13.5681 24.7007 13.802 24.6501 14.0566C24.5994 14.3112 24.6254 14.5751 24.7248 14.8149C24.8241 15.0548 24.9923 15.2597 25.2082 15.404ZM22.1946 17.0897C21.619 16.7051 20.9423 16.4998 20.25 16.4998C19.322 16.5008 18.4323 16.8699 17.7761 17.5261C17.1199 18.1823 16.7508 19.072 16.7498 20C16.7498 20.6923 16.9551 21.369 17.3397 21.9446C17.7243 22.5202 18.271 22.9688 18.9106 23.2337C19.5501 23.4986 20.2539 23.568 20.9328 23.4329C21.6118 23.2978 22.2355 22.9645 22.725 22.475C23.2145 21.9855 23.5478 21.3618 23.6829 20.6828C23.818 20.0039 23.7486 19.3001 23.4837 18.6605C23.2188 18.021 22.7702 17.4743 22.1946 17.0897ZM17.3333 15.6348C18.1966 15.0579 19.2116 14.75 20.25 14.75C21.6424 14.75 22.9777 15.3031 23.9623 16.2877C24.9469 17.2723 25.5 18.6076 25.5 20C25.5 21.0383 25.1921 22.0534 24.6152 22.9167C24.0383 23.7801 23.2184 24.453 22.2591 24.8504C21.2998 25.2477 20.2442 25.3517 19.2258 25.1491C18.2074 24.9465 17.2719 24.4465 16.5377 23.7123C15.8035 22.9781 15.3035 22.0426 15.1009 21.0242C14.8983 20.0058 15.0023 18.9502 15.3996 17.9909C15.797 17.0316 16.4699 16.2117 17.3333 15.6348Z" fill="black"/>
</svg>
