<svg width="40" height="40" viewBox="0 0 40 40" fill="none" xmlns="http://www.w3.org/2000/svg">
<path d="M29.0705 9.5H11.5444C10.5867 9.5 9.75 10.1891 9.75 11.1355V28.7005C9.75 29.652 10.5867 30.5 11.5444 30.5H29.0653C30.0281 30.5 30.75 29.6464 30.75 28.7005V11.1355C30.7556 10.1891 30.0281 9.5 29.0705 9.5ZM16.2595 27.0045H13.2511V17.6506H16.2595V27.0045ZM14.8594 16.2284H14.8378C13.875 16.2284 13.2516 15.5117 13.2516 14.6145C13.2516 13.7009 13.8914 13.0011 14.8758 13.0011C15.8602 13.0011 16.4625 13.6958 16.4841 14.6145C16.4836 15.5117 15.8602 16.2284 14.8594 16.2284ZM27.2545 27.0045H24.2461V21.89C24.2461 20.6647 23.8083 19.8275 22.7198 19.8275C21.8883 19.8275 21.3961 20.39 21.1772 20.938C21.0952 21.1348 21.0731 21.403 21.0731 21.6767V27.0045H18.0647V17.6506H21.0731V18.9523C21.5109 18.3289 22.1948 17.4317 23.7863 17.4317C25.7611 17.4317 27.255 18.7334 27.255 21.5398L27.2545 27.0045Z" fill="black"/>
</svg>
