<svg width="40" height="40" viewBox="0 0 40 40" fill="none" xmlns="http://www.w3.org/2000/svg">
<path d="M32.0925 14.9745C32.0925 12.8652 30.541 11.1683 28.6238 11.1683C26.0269 11.0469 23.3785 11 20.6719 11H19.8282C17.1282 11 14.475 11.0469 11.8782 11.1687C9.96567 11.1687 8.4141 12.875 8.4141 14.9844C8.29692 16.6527 8.24723 18.3214 8.25004 19.9902C8.24535 21.6589 8.29848 23.3292 8.40942 25.0011C8.40942 27.1105 9.96098 28.8214 11.8735 28.8214C14.6016 28.948 17.4 29.0042 20.2454 28.9995C23.0954 29.0089 25.886 28.9495 28.6172 28.8214C30.5344 28.8214 32.086 27.1105 32.086 25.0011C32.1985 23.3277 32.25 21.6589 32.2454 19.9855C32.256 18.3167 32.205 16.6464 32.0925 14.9745ZM17.9532 24.5886V15.3777L24.75 19.9808L17.9532 24.5886Z" fill="black"/>
</svg>
